# xmcd
#
# Track frame offsets: 
#        150
#        10229
#        22843
#        34299
#        44951
#        56167
#        69633
#        79938
#        86842
#        100302
#        111052
#        124142
#
# Disc length: 1817 seconds
#
# Revision: 0
# Processed by: cddbd v1.5.2PL0 Copyright (c) Steve Scherf et al.
# Submitted via: ExactAudioCopy v0.99pb5
#
DISCID=a607170c
DTITLE=Old Time Gospel - The Oak Ridge Boys - Disc 2
DYEAR=2009
DGENRE=Gospel
TTITLE0=I Wouldn't Take Nothing For My Journey Now
TTITLE1=In The Shelter Of His Arms
TTITLE2=Is My Lord Satisfied With Me
TTITLE3=It's Different Now
TTITLE4=Keep Walking
TTITLE5=Lead Me To Calvary
TTITLE6=Less Of Me
TTITLE7=Live A Little More
TTITLE8=Love Of God
TTITLE9=My Heavenly Father Watches Over Me
TTITLE10=Old Country Church
TTITLE11=On The Sunny Banks
EXTD=
EXTT0=
EXTT1=
EXTT2=
EXTT3=
EXTT4=
EXTT5=
EXTT6=
EXTT7=
EXTT8=
EXTT9=
EXTT10=
EXTT11=
PLAYORDER=
